<svg width="14" height="10" viewBox="0 0 14 10" fill="none" xmlns="http://www.w3.org/2000/svg">
<path d="M6.50102 2.52901C6.26102 2.53401 6.024 2.57 5.796 2.642C5.903 2.827 5.95902 3.037 5.95902 3.252C5.95902 3.949 5.39202 4.51601 4.69502 4.51601C4.48102 4.51301 4.27101 4.457 4.08601 4.353C3.70001 5.689 4.47201 7.089 5.81001 7.472C7.14801 7.858 8.54602 7.086 8.93202 5.748C9.31702 4.409 8.54601 3.01201 7.20701 2.62601C6.97701 2.56101 6.74002 2.52901 6.50102 2.52901ZM12.922 4.728C11.699 2.34 9.27502 0.723999 6.50102 0.723999C3.72702 0.723999 1.30302 2.34 0.07902 4.728C-0.02398 4.935 -0.02398 5.17899 0.07902 5.38699C1.30302 7.77499 3.72702 9.39101 6.50102 9.39101C9.27502 9.39101 11.699 7.77499 12.922 5.38699C13.028 5.17899 13.028 4.935 12.922 4.728ZM6.50102 8.30701C4.27502 8.30701 2.23302 7.06601 1.13102 5.05701C2.23302 3.04801 4.27302 1.80701 6.50102 1.80701C8.72802 1.80701 10.769 3.04801 11.87 5.05701C10.769 7.06601 8.72802 8.30701 6.50102 8.30701Z" fill="#3E3E3E"/>
</svg>
