<svg width="21" height="19" viewBox="0 0 21 19" fill="none" xmlns="http://www.w3.org/2000/svg">
<path d="M21 14.739V15.91C21 16.232 20.74 16.496 20.41 16.496H18.73V18.178C18.73 18.5 18.47 18.764 18.15 18.764H16.98C16.65 18.764 16.39 18.5 16.39 18.178V16.496H14.71C14.39 16.496 14.12 16.232 14.12 15.91V14.739C14.12 14.417 14.39 14.154 14.71 14.154H16.39V12.471C16.39 12.149 16.65 11.886 16.98 11.886H18.15C18.47 11.886 18.73 12.149 18.73 12.471V14.154H20.41C20.74 14.154 21 14.417 21 14.739ZM0.589966 2.44699H15.8C16.13 2.44699 16.39 2.18298 16.39 1.86098V0.690979C16.39 0.368979 16.13 0.10498 15.8 0.10498H0.589966C0.259966 0.10498 0 0.368979 0 0.690979V1.86098C0 2.18698 0.259966 2.44699 0.589966 2.44699ZM0.589966 7.12999H15.8C16.13 7.12999 16.39 6.86599 16.39 6.54399V5.37398C16.39 5.05198 16.13 4.78798 15.8 4.78798H0.589966C0.259966 4.78798 0 5.05198 0 5.37398V6.54399C0 6.86999 0.259966 7.12999 0.589966 7.12999ZM0 14.739V15.91C0 16.232 0.259966 16.496 0.589966 16.496H11.67V14.154H0.589966C0.259966 14.154 0 14.417 0 14.739ZM0 10.056V11.227C0 11.549 0.259966 11.813 0.589966 11.813H14.03V9.47098H0.589966C0.259966 9.47098 0 9.73498 0 10.056Z" fill="black"/>
</svg>
