<svg width="20" height="14" viewBox="0 0 20 14" fill="none" xmlns="http://www.w3.org/2000/svg">
<path d="M18.09 0.367981H17.6801C17.2501 0.367981 16.84 0.542989 16.54 0.853989L13.24 4.23698V2.02599C13.24 1.11099 12.51 0.367981 11.62 0.367981H1.91003C1.01003 0.367981 0.290039 1.11099 0.290039 2.02599V11.974C0.290039 12.889 1.01003 13.632 1.91003 13.632H11.62C12.51 13.632 13.24 12.889 13.24 11.974V9.76299L16.54 13.146C16.84 13.457 17.2501 13.632 17.6801 13.632H18.09C18.99 13.632 19.71 12.889 19.71 11.974V2.02599C19.71 1.11099 18.99 0.367981 18.09 0.367981Z" fill="#808080"/>
</svg>
