<svg width="22" height="18" viewBox="0 0 22 18" fill="none" xmlns="http://www.w3.org/2000/svg">
<path d="M20.26 0H1.73999C0.83999 0 0.109985 0.745993 0.109985 1.66499V12.767C0.109985 13.687 0.83999 14.433 1.73999 14.433H10.08V15.543H4.64001C4.03001 15.543 3.55005 16.039 3.55005 16.653C3.55005 17.267 4.03001 17.763 4.64001 17.763H17.71C18.31 17.763 18.8 17.267 18.8 16.653C18.8 16.039 18.31 15.543 17.71 15.543H12.26V14.433H20.26C21.16 14.433 21.89 13.687 21.89 12.767V1.66499C21.89 0.745993 21.16 0 20.26 0ZM19.72 12.212H2.28003V2.22H19.72V12.212Z" fill="#808080"/>
</svg>
