<svg width="12" height="12" viewBox="0 0 12 12" fill="none" xmlns="http://www.w3.org/2000/svg">
<path d="M11.222 10.375L9.00595 8.038C8.90595 7.933 8.77096 7.874 8.62796 7.874H8.26596C8.87996 7.047 9.24396 6.006 9.24396 4.875C9.24396 2.182 7.17495 0 4.62195 0C2.06895 0 -6.10352e-05 2.182 -6.10352e-05 4.875C-6.10352e-05 7.567 2.06895 9.749 4.62195 9.749C5.69495 9.749 6.68194 9.365 7.46594 8.718V9.1C7.46594 9.25 7.52195 9.393 7.62195 9.498L9.83694 11.835C10.0459 12.055 10.3839 12.055 10.5909 11.835L11.2199 11.172C11.4279 10.951 11.428 10.595 11.222 10.375ZM4.62195 7.874C3.05095 7.874 1.77695 6.534 1.77695 4.875C1.77695 3.218 3.04895 1.875 4.62195 1.875C6.19295 1.875 7.46594 3.215 7.46594 4.875C7.46594 6.531 6.19495 7.874 4.62195 7.874Z" fill="#999999"/>
</svg>
